# xmcd
#
# Track frame offsets: 
#        150
#        12222
#        22545
#        32145
#        43195
#        56410
#        66217
#        80570
#        93012
#        106150
#        118997
#        132260
#        144997
#        156367
#        167165
#        178002
#        188220
#        198217
#
# Disc length: 2752 seconds
#
# Revision: 0
# Processed by: cddbd v1.4PL0 Copyright (c) Steve Scherf et al.
# Submitted via: ExactAudioCopy v0.90a11
#
DISCID=e90abe12
DTITLE=Various Artist - The Cream of Rare Soul: Soul Food
DYEAR=1900
DGENRE=
TTITLE0=The Sharonettes - Papa-Oom-Mow-Mow
TTITLE1=The Charades - Dreamin' up a World of Fantasy
TTITLE2=Dynamics - Soul Food
TTITLE3=Dynamics - Yes I Love You Baby (Instrumental)
TTITLE4=Patti Young - Head and Shoulders
TTITLE5=Lloyd Williams and Highlights - Love Keeps Falling Away
TTITLE6=Lloyd Williams - It Won't Matter at all
TTITLE7=Royal Playboys - Arabia (Instrumental)
TTITLE8=Metros - What's Wrong With Your Love (Version 2)
TTITLE9=Metros - Don't Let Her Give You Some of Her Love
TTITLE10=Nelson Sandlers - It's Real
TTITLE11=Reggie Miller - Music in My Soul
TTITLE12=Johnny Rogers - Make a Change
TTITLE13=Johnny Rogers - Soul Food (Instrumental)
TTITLE14=Doni Burdick - Open the Door to Your Heart
TTITLE15=Doni Burdick - I Have Faith in You
TTITLE16=Sammy Turner - Give My Heart a Break
TTITLE17=George Lemons - Fascinating Girl (Instrumental)
EXTD=
EXTT0=
EXTT1=
EXTT2=
EXTT3=
EXTT4=
EXTT5=
EXTT6=
EXTT7=
EXTT8=
EXTT9=
EXTT10=
EXTT11=
EXTT12=
EXTT13=
EXTT14=
EXTT15=
EXTT16=
EXTT17=
PLAYORDER=
